<?xml version="1.0" encoding="utf-8"?>
<!-- Generator: Adobe Illustrator 16.0.0, SVG Export Plug-In . SVG Version: 6.00 Build 0)  -->
<!DOCTYPE svg PUBLIC "-//W3C//DTD SVG 1.1//EN" "http://www.w3.org/Graphics/SVG/1.1/DTD/svg11.dtd">
<svg version="1.1" id="img1" xmlns="http://www.w3.org/2000/svg" xmlns:xlink="http://www.w3.org/1999/xlink" x="0px" y="0px"
	 width="40px" height="40px" viewBox="0 0 40 40" enable-background="new 0 0 40 40" xml:space="preserve">
<path fill="#D4D4D4" d="M1.551,35.251h1.878c0.848-6.259,5.155-11.581,11.28-13.621l1.68-0.56l-1.415-1.066
	c-2.127-1.603-3.347-4.04-3.347-6.685c0-4.617,3.756-8.373,8.373-8.373s8.373,3.756,8.373,8.373c0,2.646-1.22,5.082-3.348,6.685
	L23.61,21.07l1.681,0.56c6.125,2.041,10.432,7.362,11.28,13.621h1.878c-0.797-6.548-4.997-12.207-11.095-14.825
	c1.846-1.896,2.879-4.412,2.879-7.106c0-5.643-4.591-10.233-10.233-10.233S9.767,7.678,9.767,13.32c0,2.694,1.033,5.209,2.879,7.106
	C6.547,23.045,2.348,28.703,1.551,35.251z"/>
</svg>
